<svg width="41" height="45" viewBox="0 0 41 45" fill="none" xmlns="http://www.w3.org/2000/svg">
<g clip-path="url(#clip0_14_153)">
<path d="M7.9042 8.66975C8.4023 8.33353 8.85059 8.00977 9.32379 7.69845C9.78453 7.38714 10.2702 7.10074 10.7434 6.81433C9.26152 4.73476 9.79698 2.66765 10.7434 1.52202C11.8392 0.189606 13.5203 -0.320945 15.1142 0.202059C16.8824 0.787326 17.8537 2.29408 17.9409 4.63514C24.5905 4.06233 30.1692 6.47811 35.0755 10.8116C36.0095 10.052 37.0804 9.79047 38.2509 10.164C40.3554 10.824 41.2644 13.3519 40.0939 15.2447C40.0316 15.3443 39.9693 15.4688 39.8822 15.5435C38.9607 16.3778 38.9981 17.3118 39.3218 18.4699C40.0814 21.1596 40.4301 23.9365 40.1188 26.7508C39.5584 31.7193 37.5038 35.9531 33.8676 39.39C30.7794 42.3039 27.1184 44.0473 22.9094 44.645C12.3622 46.1144 2.47492 39.1285 0.395357 28.7058C-0.538579 24.0486 0.221023 19.603 2.26323 15.3567C2.41266 15.0454 2.42511 14.8337 2.18851 14.5598C1.55344 13.8126 1.10515 12.9783 0.993076 11.9572C0.806289 10.3135 1.70287 8.63239 3.20962 7.84788C4.67901 7.08828 6.45972 7.32488 7.69251 8.4456C7.74232 8.52032 7.81704 8.58258 7.9042 8.66975ZM35.4117 12.2063C35.0133 12.6296 34.9385 13.1526 35.0257 13.6756C35.2748 15.1575 36.52 15.9918 37.2298 17.262C37.9147 16.3529 38.5498 15.5435 39.135 14.6968C39.8324 13.6756 39.546 12.281 38.5498 11.5463C37.5037 10.7618 35.9223 11.1104 35.3993 12.2312L35.4117 12.2063ZM16.6832 19.4287C16.7455 19.2295 16.7953 19.0676 16.8575 18.9057C17.4553 17.1997 19.1737 16.0292 20.8548 16.1786C22.4612 16.3156 23.6317 17.1001 24.3166 18.5446C25.0015 20.014 24.8396 21.4335 23.9181 22.766C23.6939 23.0897 23.4574 23.401 23.1834 23.7622C23.8185 24.5218 24.4536 25.2814 25.0762 26.041C25.8607 26.9874 25.7611 28.0458 24.7898 28.8179C24.2917 29.2163 23.7936 29.6273 23.2706 29.9759C22.4612 30.5239 21.988 31.2461 21.7389 32.1925C21.4401 33.3506 21.1412 34.5087 20.2197 35.3928C19.7092 35.8784 19.485 36.526 19.3978 37.2233C19.2982 37.9206 18.9247 38.4561 18.302 38.8048C17.2685 39.39 16.0855 38.867 15.8489 37.6965C15.7119 37.0116 15.5625 36.3267 15.5002 35.6418C15.3632 34.0977 14.8776 32.7529 13.8067 31.5823C12.5739 30.2375 11.6275 28.7182 11.3286 26.8628C11.2664 26.5266 11.1418 26.1904 11.0547 25.8542C10.8679 25.0448 10.3698 24.5467 9.56038 24.2976C9.137 24.1606 8.68871 23.9739 8.36495 23.6874C7.41856 22.8656 6.44726 22.0562 5.74992 20.9853C5.23937 20.2008 4.28053 19.9019 3.38395 20.1883C2.8734 20.3502 2.3753 20.537 1.86475 20.6739C1.60325 20.7487 1.50363 20.8981 1.46627 21.1471C0.930814 23.8991 1.00553 26.6387 1.69042 29.3533C4.50468 40.4858 16.5089 46.6996 27.1308 42.3413C34.2288 39.4274 38.1637 33.9483 39.0479 26.3149C39.135 25.518 39.0603 24.6961 39.0603 23.8493C38.7116 23.8867 38.4128 23.9489 38.1139 23.9365C37.3543 23.8991 36.9185 24.2603 36.6072 24.9327C36.1464 25.9662 35.3246 26.6262 34.1914 26.7881C33.5688 26.8753 32.9212 26.8628 32.2862 26.8628C30.9537 26.8628 30.1568 26.1406 30.0572 24.8082C30.0074 24.2229 29.833 23.7373 29.31 23.3886C29.0361 23.2018 28.8244 22.8905 28.6749 22.5792C28.1395 21.4834 28.4633 19.9268 29.3723 19.1174C30.2066 18.3702 31.0534 17.6231 31.8877 16.8884C32.3235 16.5024 32.4605 16.0292 32.2986 15.4937C32.1367 14.9583 31.7383 14.6469 31.1654 14.5722C31.016 14.5598 30.8666 14.5224 30.7171 14.4975C29.2727 14.1987 28.1644 12.667 29.1606 11.098C29.6213 10.3508 30.0447 9.57878 30.5179 8.78182C27.1308 6.78942 23.5445 5.60644 19.5099 5.6687C19.6344 5.86794 19.7092 5.99246 19.7963 6.11699C20.3442 6.91395 20.917 7.69845 21.4525 8.50787C22.237 9.69085 22.1997 11.098 21.3778 12.2561C21.2284 12.4678 21.054 12.6545 20.9046 12.8662C20.1699 13.9621 19.1363 14.3481 17.8662 14.099C17.007 13.9371 16.4093 14.2236 15.9361 14.9333C15.3259 15.8299 14.4418 16.216 13.3459 16.0665C12.7482 15.9794 12.138 15.8922 11.5403 15.8673C10.9177 15.8424 10.4321 16.1537 10.1207 16.6891C9.82189 17.1997 9.90905 17.7103 10.2204 18.1834C10.569 18.7189 10.8928 19.2668 11.2415 19.7898C11.6275 20.3626 12.2003 20.5245 12.8229 20.2257C13.0097 20.1385 13.209 20.0389 13.3833 19.9268C14.3919 19.2917 15.4753 19.0925 16.6832 19.4287ZM1.83985 19.3913C1.8772 19.4162 1.92701 19.4411 1.96437 19.4661C2.31304 19.354 2.66171 19.2419 2.99793 19.1298C4.34279 18.7064 5.70011 19.1423 6.58424 20.2132C7.21932 20.9853 7.91666 21.695 8.58909 22.4297C8.98757 22.8656 9.48567 23.1395 10.046 23.3014C11.0671 23.6127 11.7271 24.2976 12.0384 25.3063C12.2626 26.0285 12.4743 26.7508 12.6486 27.4855C12.8354 28.2824 13.1716 28.9798 13.6946 29.6273C14.3546 30.4367 15.0146 31.2586 15.5874 32.1302C15.9111 32.6159 16.1477 33.2011 16.2847 33.774C16.5462 34.9196 16.6708 36.1026 16.9073 37.2607C16.9572 37.4848 17.1813 37.8335 17.3307 37.8459C17.5798 37.8584 17.8786 37.6716 18.0903 37.4972C18.2273 37.3852 18.2771 37.1237 18.3145 36.9244C18.4266 36.1897 18.6382 35.4799 19.1488 34.9445C19.9458 34.1102 20.3816 33.1264 20.6306 32.0306C20.6929 31.7816 20.7925 31.545 20.8548 31.2959C21.0789 30.5239 21.5023 29.9012 22.1498 29.428C22.8098 28.9299 23.4823 28.4194 24.1298 27.8964C24.5283 27.5851 24.6154 27.2239 24.329 26.8753C23.7438 26.1281 23.1211 25.4183 22.4861 24.6587C22.0502 25.244 21.6517 25.7919 21.2408 26.3274C20.8548 26.8379 20.5061 26.8379 20.1201 26.3398C19.236 25.1693 18.3518 23.9863 17.4802 22.8033C17.0443 22.2181 16.7828 21.5705 16.6583 20.8483C16.6334 20.6988 16.4591 20.4996 16.3221 20.4623C15.6746 20.2879 15.0395 20.3004 14.4293 20.6117C14.0433 20.8109 13.6573 21.0351 13.2588 21.2219C12.3622 21.6452 11.4158 21.5954 10.7807 20.8607C10.0585 20.014 9.38605 19.0302 8.97512 18.0091C8.36495 16.5148 9.66 14.7964 11.3037 14.759C12.0758 14.7341 12.8354 14.8835 13.6074 14.9458C14.2052 14.9956 14.7033 14.8088 15.0146 14.2983C15.7617 13.1277 16.8077 12.7417 18.1401 12.9908C18.8873 13.1277 19.5224 12.941 19.9582 12.2685C20.0827 12.0817 20.2322 11.9074 20.3691 11.7331C21.054 10.8365 21.0789 9.87764 20.4439 8.95616C19.7714 7.98486 19.099 7.01357 18.4266 6.04227C18.1526 5.65625 17.6919 5.6936 17.4179 6.07963C16.3968 7.49922 15.3757 8.90635 14.3297 10.301C14.0433 10.6746 13.6822 10.6497 13.3833 10.2761C13.0844 9.90254 12.798 9.50407 12.5116 9.11804C12.1505 8.64484 11.8018 8.1841 11.4158 7.67355C10.4196 8.32108 9.47322 8.93125 8.55173 9.54142C9.21171 10.9859 9.29888 12.3681 8.46457 13.6258C7.53063 15.0454 6.47217 16.3778 5.45107 17.7352C5.18956 18.0838 4.81599 18.0714 4.52958 17.7227C4.23072 17.3616 3.95677 16.9756 3.68281 16.602C3.53338 16.4027 3.38395 16.216 3.14736 15.9171C2.68661 17.1374 2.26323 18.2706 1.83985 19.3913ZM31.4768 9.32973C30.9662 10.2139 30.493 11.0108 30.0323 11.8078C29.7583 12.2934 29.8206 12.7542 30.2813 13.053C30.6175 13.2772 31.0409 13.4017 31.4518 13.4764C32.4605 13.6756 33.2326 14.4228 33.4193 15.4314C33.5812 16.328 33.2948 17.0752 32.6224 17.6853C31.7632 18.4574 30.8915 19.2045 30.0447 19.9891C29.3972 20.5868 29.31 22.0188 29.9451 22.492C30.7545 23.0773 31.1032 23.8369 31.1405 24.8206C31.1654 25.4308 31.5266 25.7297 32.1492 25.7546C32.4729 25.767 32.7843 25.7421 33.108 25.767C34.3657 25.8417 35.2499 25.3436 35.7604 24.1482C36.0966 23.3637 36.7566 22.9527 37.6158 22.8656C38.0517 22.8282 38.4875 22.7784 39.0479 22.7286C38.749 21.1471 38.4501 19.603 38.1637 18.0589C37.9645 18.1336 37.9147 18.2084 37.8524 18.2706C37.3792 18.8683 37.0679 18.8683 36.6072 18.2457C35.9347 17.3491 35.2374 16.465 34.6023 15.5435C34.3159 15.1201 34.1042 14.6096 33.9548 14.1115C33.6933 13.2772 33.9548 12.4678 34.3284 11.6583C33.4069 10.8863 32.4605 10.1267 31.4768 9.32973ZM20.6431 25.244C20.7552 25.1195 20.805 25.0572 20.8423 25.0074C21.5895 24.0112 22.3491 23.0275 23.0589 22.0188C23.9305 20.7736 23.7189 19.08 22.6106 18.0465C21.5646 17.0752 19.9831 17.0254 18.8624 17.9095C17.6919 18.8434 17.3307 20.5619 18.1526 21.832C18.9122 23.0026 19.7963 24.0859 20.6431 25.244ZM13.8565 9.10559C14.6534 8.04712 15.3881 7.06338 16.1228 6.06718C16.2474 5.89284 16.3719 5.71851 16.4715 5.53172C17.1315 4.26157 16.7953 2.66765 15.6746 1.75862C14.6161 0.899398 13.1093 0.899398 12.0758 1.75862C10.9551 2.6801 10.5566 4.28647 11.3037 5.51927C12.0509 6.75207 12.9724 7.87279 13.8565 9.10559ZM5.00278 16.5148C5.87445 15.3194 6.75858 14.236 7.51818 13.0779C8.31514 11.8451 7.97892 10.164 6.8582 9.21766C5.78728 8.30863 4.20582 8.30863 3.14736 9.21766C2.01418 10.189 1.69042 11.8825 2.51228 13.1277C3.27188 14.2609 4.1311 15.3318 5.00278 16.5148Z" fill="#874B99"/>
</g>
<defs>
<clipPath id="clip0_14_153">
<rect width="40.62" height="44.8289" fill="white"/>
</clipPath>
</defs>
</svg>
