<svg width="55" height="42" viewBox="0 0 55 42" fill="none" xmlns="http://www.w3.org/2000/svg">
<g clip-path="url(#clip0_13_54)">
<path d="M39.1275 20.251C39.7601 22.3353 38.2668 24.5649 35.6225 24.233C34.5336 26.9292 32.9781 27.624 30.759 26.4003C28.6642 28.4847 27.005 28.4951 25.3355 26.39C24.3814 27.0122 23.3444 27.1988 22.2763 26.7114C21.2186 26.2344 20.6482 25.3841 20.5134 24.2538C17.7654 24.316 16.4795 22.8746 16.9047 20.2924C14.3848 19.1103 13.8041 17.3474 15.2766 15.18C14.3848 14.4645 13.887 13.5416 14.0218 12.3594C14.1567 11.2187 14.7789 10.3995 15.8055 9.90174C14.7581 7.53739 16.0544 5.43228 18.5017 5.22488C18.4498 4.1153 18.8024 3.15089 19.7357 2.46648C20.669 1.78206 21.6852 1.67836 22.8156 2.15538C23.2407 1.06653 23.9563 0.309523 25.1177 0.0710137C26.2688 -0.167495 27.2124 0.205823 28.0006 1.02505C29.6286 -0.603034 32.2211 -0.323045 33.2581 2.14501C34.2951 1.6991 35.3217 1.75095 36.2654 2.41462C37.2194 3.0783 37.6135 4.03234 37.5305 5.25599C38.692 5.33895 39.646 5.77449 40.2371 6.80112C40.8075 7.807 40.7763 8.83363 40.2371 9.82915C42.4874 11.5609 42.6844 13.3653 40.7867 15.1904C41.5022 16.0719 41.8133 17.0674 41.4297 18.1977C41.0667 19.3073 40.2682 19.9502 39.1275 20.251ZM21.4053 23.9323C21.3845 24.8552 21.8408 25.5707 22.6497 25.9337C23.4792 26.2966 24.3088 26.1204 25.014 25.4256C25.574 24.876 25.7814 24.9174 26.051 25.6433C26.4139 26.587 27.0984 27.0744 28.0628 27.064C28.9961 27.0537 29.6701 26.5559 30.0123 25.6537C30.2819 24.9278 30.479 24.8863 31.0389 25.4463C31.7234 26.1307 32.5737 26.307 33.4033 25.9337C34.2329 25.5604 34.6892 24.8034 34.6477 23.8597C34.6166 23.0301 34.7307 22.9471 35.5395 23.2479C36.4002 23.559 37.2402 23.3619 37.8313 22.7086C38.4224 22.0553 38.5364 21.1635 38.1424 20.365C37.7587 19.5769 37.8105 19.4836 38.7024 19.4214C39.6149 19.3488 40.2993 18.8303 40.5689 17.9799C40.8489 17.1192 40.6104 16.3 39.9053 15.7193C39.1897 15.1282 39.2001 15.0349 40.0401 14.5786C40.7971 14.1638 41.243 13.3653 41.1393 12.5564C41.0252 11.6543 40.4652 10.9802 39.6253 10.7313C38.7127 10.4721 38.6816 10.3788 39.252 9.66323C39.8016 8.96844 39.8845 8.06625 39.4282 7.30925C38.9616 6.54187 38.2772 6.17892 37.375 6.29299C36.3795 6.41743 36.3484 6.36558 36.5558 5.40117C36.7528 4.50936 36.4417 3.72124 35.7054 3.20274C34.9381 2.67387 34.1499 2.6635 33.3618 3.19237C32.667 3.64865 32.4907 3.57606 32.3663 2.7672C32.2211 1.83391 31.6508 1.20134 30.8004 1.01468C29.8775 0.807281 29.079 1.12875 28.5502 1.9065C28.0835 2.58054 27.8761 2.59091 27.4509 1.92724C26.9428 1.13912 26.1962 0.817651 25.294 0.99394C24.4125 1.17023 23.7903 1.78206 23.6141 2.65313C23.4481 3.61754 23.3963 3.63828 22.5667 3.14052C21.7889 2.6635 20.9386 2.70498 20.2127 3.25459C19.5283 3.77309 19.2483 4.60269 19.4661 5.43228C19.6942 6.31373 19.6009 6.41743 18.6676 6.29299C17.7654 6.17892 16.9877 6.55224 16.5521 7.32999C16.1062 8.12847 16.1788 8.93733 16.7803 9.6736C17.3091 10.3165 17.2469 10.4928 16.4692 10.7002C15.5877 10.9387 14.9863 11.6128 14.9033 12.4631C14.7996 13.4172 15.1937 14.1534 16.044 14.589C16.7906 14.983 16.8114 15.1489 16.1788 15.6571C15.4218 16.2689 15.1729 17.0777 15.4633 17.9592C15.7433 18.8199 16.4484 19.3488 17.4025 19.411C18.2424 19.4628 18.3046 19.5769 17.9106 20.3339C17.4958 21.1635 17.5891 21.9827 18.2009 22.6672C18.8024 23.3412 19.6424 23.559 20.4823 23.2479C21.3327 22.9264 21.426 22.999 21.4053 23.9323Z" fill="#C63475"/>
<path d="M28.0524 35.9926C27.4717 36.6251 27.0361 37.1436 26.5591 37.631C25.3666 38.8443 24.1637 40.0472 22.94 41.2294C22.7845 41.3746 22.4837 41.5198 22.3074 41.4575C22.1519 41.4057 22.0067 41.0842 21.9963 40.8768C21.9756 36.677 21.9756 32.4875 22.0067 28.2877C22.0067 28.0596 22.3074 27.8418 22.4734 27.6136C22.6185 27.8625 22.8882 28.101 22.8882 28.3499C22.9193 31.8861 22.9089 35.4326 22.9089 38.9688C22.9089 39.2176 22.9089 39.4665 22.9089 39.8502C23.137 39.6635 23.2822 39.5495 23.4067 39.425C24.7133 38.1288 26.0095 36.8222 27.3058 35.5259C27.9798 34.8622 28.0317 34.8622 28.7161 35.5467C29.9812 36.8118 31.2464 38.0769 32.5219 39.3421C32.6774 39.4976 32.8433 39.6324 33.1129 39.8813C33.1129 39.4769 33.1129 39.2384 33.1129 38.9999C33.1129 35.5259 33.1129 32.0624 33.1129 28.5884C33.1129 28.381 33.0715 28.1529 33.1544 27.987C33.227 27.8314 33.4137 27.6655 33.5692 27.6344C33.6833 27.6136 33.9011 27.7796 33.9633 27.9247C34.0462 28.101 34.0462 28.3188 34.0462 28.5158C34.0462 32.5497 34.0566 36.594 34.0359 40.6279C34.0359 40.9079 33.8492 41.1879 33.7455 41.4679C33.4759 41.3435 33.1544 41.2813 32.9574 41.0946C31.4849 39.6532 30.0227 38.1806 28.5709 36.7185C28.4257 36.5526 28.3013 36.3244 28.0524 35.9926Z" fill="#C63475"/>
<path d="M28.4983 31.575C28.4983 31.8446 28.5605 32.1349 28.4776 32.3838C28.4153 32.5705 28.1768 32.7053 28.0109 32.8608C27.8657 32.7053 27.6169 32.5705 27.6065 32.4045C27.5546 31.7927 27.5546 31.1809 27.6065 30.5691C27.6169 30.4031 27.8554 30.258 28.0006 30.1024C28.1665 30.2476 28.4361 30.372 28.4776 30.5483C28.5502 30.8802 28.4879 31.2431 28.4983 31.575Z" fill="#C63475"/>
<path d="M37.8002 13.9668C37.8105 19.3488 33.4655 23.7456 28.1042 23.756C22.6496 23.7664 18.232 19.4006 18.232 13.9875C18.232 8.60549 22.6496 4.18788 28.0213 4.18788C33.4137 4.17751 37.7794 8.54327 37.8002 13.9668ZM28.0213 22.8953C32.9055 22.9057 36.9602 18.8614 36.9498 13.9771C36.9395 9.09288 32.9574 5.11081 28.0731 5.09007C23.1785 5.06933 19.1239 9.0514 19.1239 13.8942C19.1135 18.8821 23.0644 22.8849 28.0213 22.8953Z" fill="#C63475"/>
</g>
<defs>
<clipPath id="clip0_13_54">
<rect width="55" height="41.9375" fill="white"/>
</clipPath>
</defs>
</svg>
