<svg width="45" height="38" viewBox="0 0 45 38" fill="none" xmlns="http://www.w3.org/2000/svg">
<g clip-path="url(#clip0_14_163)">
<path d="M0 4.38158C0.0355263 4.29869 0.0710526 4.22763 0.0947369 4.14474C0.544737 2.22632 1.75263 1.125 3.67105 0.746053C4.39342 0.603948 5.10395 0.343421 5.81447 0.153947C6.09869 0.0828947 6.3829 0.0236842 6.66711 0.0118421C7.80395 0 8.92895 0 10.0539 0C12.3039 0 14.0447 1.71711 14.0447 3.96711C14.0447 4.78421 14.0921 5.61316 14.0211 6.43026C13.9855 6.91579 13.7842 7.40132 13.5947 7.875C13.4882 8.14737 13.2632 8.36053 13.1211 8.60921C12.8487 9.13027 12.5526 9.66316 12.3395 10.2079C11.9842 11.1079 11.5224 11.925 10.7882 12.5645C10.5395 12.7776 10.4803 13.0026 10.5395 13.2987C10.575 13.4526 10.5868 13.6184 10.6224 13.7724C10.7645 14.5066 11.0605 15.075 11.7829 15.4658C12.7303 15.975 13.6184 16.6026 14.5303 17.1829C14.9921 17.479 15.1224 17.8342 14.8974 18.2013C14.6724 18.5803 14.2697 18.6395 13.7961 18.3434C12.9316 17.7987 12.0671 17.254 11.1789 16.6974C10.5276 18.6632 9.07105 19.4447 7.14079 19.504C5.0329 19.5632 3.88421 18.8053 2.83026 16.7211C2.32105 17.0526 1.8 17.3842 1.29079 17.7158C0.675 18.1184 0.438158 18.0829 0 17.479C0 17.3368 0 17.1829 0 17.0408C0.236842 16.8513 0.45 16.6382 0.698684 16.4724C1.21974 16.1171 1.72895 15.7382 2.28553 15.454C3.01974 15.0987 3.28026 14.4711 3.42237 13.7487C3.4579 13.5947 3.46974 13.429 3.50526 13.275C3.56447 12.979 3.49342 12.754 3.24474 12.5526C2.52237 11.925 2.00132 11.1553 1.72895 10.2316C1.56316 9.60395 1.24342 9.07105 0.888158 8.52632C0.568421 8.01711 0.296053 7.46053 0 6.93948C0 6.08684 0 5.23421 0 4.38158ZM7.0579 4.19211C6.32369 4.19211 5.58948 4.18026 4.86711 4.19211C3.73026 4.22763 2.83026 5.12763 2.80658 6.25263C2.79474 7.04605 2.7829 7.83948 2.80658 8.62105C2.87763 10.7289 4.61842 12.5171 6.72632 12.6474C8.89342 12.7895 10.8592 11.2974 11.1671 9.17763C11.3092 8.24211 11.2618 7.2829 11.2618 6.33553C11.2618 5.11579 10.35 4.20395 9.11842 4.19211C8.43158 4.19211 7.74474 4.19211 7.0579 4.19211ZM4.90263 13.6421C4.71316 14.2105 4.57105 14.7671 4.3579 15.2882C4.05 16.0105 4.19211 16.6382 4.67763 17.1947C5.71974 18.4263 8.26579 18.45 9.35527 17.2658C9.80527 16.7803 9.9829 16.1882 9.80526 15.5605C9.62763 14.9211 9.36711 14.3053 9.14211 13.6658C6.75 14.104 6.75 14.104 4.90263 13.6421ZM1.44474 5.73158C1.46842 5.67237 1.49211 5.63684 1.50395 5.60132C1.91842 3.88421 3.24474 2.83026 5.02105 2.81842C6.3829 2.80658 7.74474 2.7829 9.10658 2.83026C9.66316 2.85395 10.2434 2.98421 10.7408 3.22105C11.7829 3.70658 12.3632 4.59474 12.6355 5.7079C12.6711 5.11579 12.6711 4.53553 12.6711 3.95526C12.6711 2.48684 11.5579 1.37368 10.1013 1.36184C9.02369 1.36184 7.93421 1.35 6.85658 1.37368C6.58421 1.37368 6.31184 1.4329 6.03947 1.50395C5.42369 1.68158 4.81974 1.97763 4.20395 2.04868C2.25 2.28553 1.10132 3.76579 1.44474 5.73158Z" fill="#0275BC"/>
<path d="M0 24.4185C0.201316 24.0158 0.521053 23.8974 0.971053 23.8974C4.54737 23.9092 8.11184 23.9092 11.6882 23.9092C11.8066 23.9092 11.925 23.8974 12.0434 23.9211C12.3987 23.9921 12.6118 24.2171 12.6355 24.5724C12.6592 24.9158 12.3987 25.2237 12.0434 25.2711C11.925 25.2829 11.8066 25.2829 11.6882 25.2829C8.11184 25.2829 4.54737 25.2829 0.971053 25.2948C0.521053 25.2948 0.201316 25.1763 0 24.7737C0 24.6553 0 24.5369 0 24.4185Z" fill="#0275BC"/>
<path d="M22.4881 37.9421C19.0776 37.9421 15.6671 37.9421 12.2566 37.9421C9.91182 37.9421 8.45524 36.4855 8.45524 34.129C8.45524 32.9921 8.40787 31.8316 8.53813 30.7066C8.73945 28.9776 9.72234 27.7579 11.2737 26.9763C12.9316 26.1474 14.5658 25.2592 16.271 24.5013C17.4552 23.9803 17.8934 23.0329 18.2131 21.9197C18.3671 21.375 18.2605 21.0079 17.7987 20.6053C16.2829 19.2671 15.5487 17.5381 15.5131 15.5131C15.5131 15.1579 15.4302 14.8974 15.146 14.6842C14.3289 14.0447 13.9973 13.2158 14.0802 12.1737C14.1631 11.2618 14.0566 10.3145 14.246 9.4263C14.6842 7.33025 16.3302 5.94472 18.5092 5.63682C18.7105 5.61314 18.9237 5.5184 19.1013 5.41182C19.8355 4.96182 20.4987 4.38156 21.3987 4.27498C21.6355 4.2513 21.8605 4.22761 22.0973 4.22761C23.6723 4.2513 25.271 4.15656 26.8342 4.33419C29.0842 4.57103 30.8487 6.60788 30.9197 8.86972C30.9671 10.1842 30.9434 11.5105 30.9316 12.825C30.9316 13.4645 30.6473 13.9974 30.1737 14.4C29.7118 14.7908 29.5342 15.2408 29.5105 15.8684C29.4158 17.8697 28.575 19.5276 27.0355 20.8184C26.775 21.0434 26.6802 21.2566 26.7631 21.5763C26.8816 21.9908 26.9644 22.4289 27.1184 22.8316C27.4026 23.5658 27.8645 24.0987 28.6223 24.4421C30.3158 25.2355 31.9737 26.1 33.6552 26.9289C35.5973 27.9 36.5802 29.475 36.5566 31.6539C36.5447 32.7908 36.6158 33.9513 36.4618 35.0763C36.2368 36.7697 34.7566 37.9421 33.0395 37.9421C29.5105 37.9421 26.0052 37.9421 22.4881 37.9421ZM16.875 25.6974C15.0158 26.6447 13.1684 27.521 11.3921 28.5276C10.35 29.1197 9.86445 30.1618 9.84076 31.3697C9.81708 32.3763 9.82892 33.3947 9.84076 34.4013C9.85261 35.6447 10.7644 36.5684 12.0079 36.5684C19.0066 36.5684 26.0052 36.5684 33.0039 36.5684C34.2592 36.5684 35.1473 35.6566 35.171 34.4013C35.1829 33.4776 35.171 32.5539 35.171 31.6303C35.1829 30.0316 34.4723 28.8947 33.0395 28.1842C31.8434 27.5921 30.6592 26.9882 29.4631 26.3961C29.025 26.1711 28.575 25.9579 28.1368 25.7447C28.0895 25.8158 28.0539 25.8513 28.0421 25.8868C27.8052 27.0711 27.0947 27.9118 26.1 28.5276C24.596 29.4513 22.95 29.7237 21.2447 29.4039C19.1605 29.0013 17.4789 28.0421 16.875 25.6974ZM22.5 9.81709C21.3631 9.81709 20.2144 9.81709 19.0776 9.81709C17.775 9.81709 16.875 10.7289 16.8631 12.0197C16.8631 13.1329 16.8513 14.246 16.8631 15.3592C16.875 17.4079 17.7276 19.0184 19.4329 20.1671C22.7605 22.4053 27.5092 20.3329 28.0302 16.3539C28.2197 14.9447 28.125 13.4881 28.1368 12.0553C28.1487 10.6934 27.2487 9.80525 25.8868 9.80525C24.75 9.81709 23.625 9.81709 22.5 9.81709ZM19.6105 21.8605C19.3973 22.9618 18.9947 23.921 18.3316 24.7737C18.2723 24.8566 18.2723 24.9987 18.2605 25.1053C18.2131 26.2066 18.8408 26.9289 19.7289 27.4145C21.5408 28.3974 23.4 28.3974 25.2237 27.4263C25.6855 27.1776 26.1 26.775 26.396 26.3368C26.8105 25.721 26.8934 25.0697 26.396 24.3592C26.0052 23.8026 25.7921 23.1039 25.5197 22.4645C25.4487 22.2868 25.425 22.0855 25.3776 21.8724C23.4473 22.6776 21.5526 22.6776 19.6105 21.8605ZM29.546 11.3329C29.546 10.6224 29.546 9.91183 29.546 9.2013C29.5342 7.12893 28.0066 5.61314 25.9223 5.6013C24.6789 5.6013 23.4355 5.61314 22.1921 5.58946C21.6 5.57761 21.0789 5.73156 20.5934 6.07498C19.871 6.58419 19.125 6.97498 18.1894 7.12893C16.4487 7.4013 15.0987 9.21314 15.5368 11.3092C15.9987 9.43814 17.3013 8.43156 19.2434 8.43156C21.4342 8.43156 23.6368 8.41972 25.8276 8.44341C26.2184 8.44341 26.621 8.47893 27 8.59735C28.3737 8.99998 29.1552 9.97104 29.546 11.3329Z" fill="#0275BC"/>
<path d="M42.1342 16.7092C41.3882 18.7342 39.8842 19.5158 37.9066 19.4921C35.9645 19.4684 34.4842 18.6987 33.8092 16.6974C32.9803 17.2184 32.175 17.7276 31.3579 18.2487C30.7421 18.6395 30.3513 18.6276 30.1026 18.225C29.8539 17.8224 30.0079 17.479 30.6355 17.0763C31.5711 16.4842 32.5066 15.8684 33.4658 15.3C33.8566 15.0632 34.1053 14.7671 34.2237 14.329C34.271 14.1632 34.3184 13.9974 34.3776 13.8197C34.5434 13.2395 34.4842 12.8013 33.9987 12.304C33.4658 11.7592 33.0395 11.0368 32.7553 10.3263C32.471 9.60395 32.1632 8.92895 31.7013 8.32501C31.1447 7.60264 30.896 6.82106 30.9671 5.90921C31.0145 5.4 30.9434 4.87895 31.0145 4.38158C31.2987 2.45132 32.6487 1.13684 34.5671 0.757895C35.3368 0.603948 36.0829 0.331579 36.8408 0.118421C37.0658 0.0592106 37.3026 0.0118421 37.5276 0.0118421C38.7 0 39.9079 0 41.1039 0C43.2118 0.0118421 44.9645 1.75263 44.9763 3.86053C44.9763 4.725 45.0237 5.58948 44.9526 6.45395C44.9171 6.92764 44.7158 7.40132 44.5382 7.85132C44.4434 8.10001 44.2421 8.325 44.0882 8.55C43.7329 9.07106 43.425 9.59211 43.2474 10.2197C42.9868 11.1553 42.4421 11.9368 41.7079 12.5763C41.4947 12.7658 41.4118 12.9553 41.4592 13.2276C41.4947 13.4408 41.5421 13.654 41.5776 13.879C41.7079 14.5776 42.0276 15.1105 42.6908 15.454C43.3303 15.7974 43.9224 16.2355 44.5382 16.6382C44.9645 16.9224 45.071 17.2895 44.8697 17.6447C44.6447 18.0119 44.2421 18.0711 43.8039 17.7987C43.2592 17.4434 42.7145 17.0763 42.1342 16.7092ZM37.9658 4.19211C37.2671 4.19211 36.5566 4.18027 35.8579 4.19211C34.7803 4.20395 33.8447 4.95 33.7737 6.00395C33.7026 7.10527 33.6908 8.21843 33.8566 9.29606C34.1526 11.25 36.0118 12.6829 38.0368 12.6592C40.0263 12.6355 41.8263 11.1671 42.1105 9.21316C42.2408 8.26579 42.2053 7.2829 42.2053 6.32369C42.2053 5.12764 41.2816 4.21579 40.0855 4.20395C39.375 4.19211 38.6645 4.19211 37.9658 4.19211ZM35.846 13.6184C35.6566 14.2105 35.5263 14.7434 35.3013 15.2526C34.9697 16.0224 35.1237 16.6855 35.6566 17.2776C36.7342 18.45 39.221 18.4145 40.2868 17.2421C40.725 16.7566 40.9145 16.1763 40.725 15.5369C40.5355 14.9092 40.2987 14.3053 40.0618 13.6421C38.6882 14.1632 37.2671 14.1869 35.846 13.6184ZM32.3763 5.73158C32.4 5.67237 32.4237 5.63685 32.4355 5.60132C32.85 3.88421 34.1882 2.83027 35.9526 2.81842C37.3382 2.81842 38.7355 2.80658 40.121 2.81842C41.1395 2.83027 42.0276 3.19737 42.6671 3.99079C43.0697 4.48816 43.3184 5.10395 43.6145 5.60132C43.6145 5.10395 43.6145 4.51184 43.6145 3.91974C43.6026 2.48684 42.4895 1.37369 41.0447 1.37369C39.9671 1.37369 38.8776 1.36184 37.8 1.38553C37.5276 1.38553 37.2553 1.44474 36.9829 1.51579C36.3671 1.69342 35.7632 1.98947 35.1474 2.06053C33.1816 2.29737 32.0566 3.73027 32.3763 5.73158Z" fill="#0275BC"/>
<path d="M38.6645 23.9092C40.5 23.9092 42.3237 23.9092 44.1592 23.9092C44.6447 23.9092 44.9408 24.1461 44.9763 24.5369C45.0237 24.975 44.6802 25.2948 44.1592 25.2948C42.4895 25.2948 40.8197 25.2948 39.15 25.2948C37.1605 25.2948 35.171 25.2948 33.1697 25.2948C32.6724 25.2948 32.3645 25.0342 32.3526 24.6316C32.3408 24.2053 32.6605 23.9211 33.1697 23.9211C35.0052 23.9092 36.8408 23.9092 38.6645 23.9092Z" fill="#0275BC"/>
</g>
<defs>
<clipPath id="clip0_14_163">
<rect width="45" height="37.9421" fill="white"/>
</clipPath>
</defs>
</svg>
